<svg width="738" height="544" viewBox="0 0 738 544" fill="none" xmlns="http://www.w3.org/2000/svg">
<g clip-path="url(#clip0)">
<path d="M273.62 335.182L120.974 367.357C116.563 368.281 111.965 367.418 108.189 364.957C104.413 362.496 101.768 358.638 100.833 354.229L74.6394 229.959C73.7148 225.548 74.5777 220.95 77.0388 217.174C79.5 213.398 83.3584 210.753 87.7676 209.818L240.414 177.643C244.825 176.719 249.423 177.582 253.198 180.043C256.974 182.504 259.62 186.362 260.554 190.772L286.748 315.041C287.673 319.452 286.81 324.05 284.349 327.826C281.887 331.602 278.029 334.247 273.62 335.182V335.182ZM88.1801 211.775C84.2897 212.6 80.8852 214.934 78.7136 218.266C76.542 221.597 75.7806 225.654 76.5964 229.547L102.79 353.816C103.615 357.706 105.949 361.111 109.281 363.283C112.612 365.454 116.669 366.216 120.561 365.4L273.207 333.225C277.098 332.4 280.502 330.066 282.674 326.734C284.845 323.403 285.607 319.346 284.791 315.453L258.597 191.184C257.773 187.294 255.438 183.889 252.107 181.717C248.775 179.546 244.718 178.784 240.826 179.6L88.1801 211.775Z" fill="#3F3D56"/>
<path d="M230.929 218.618L153.891 234.857C153.217 235.013 152.508 234.908 151.909 234.562C151.309 234.216 150.864 233.656 150.662 232.994C150.569 232.648 150.548 232.288 150.6 231.934C150.651 231.581 150.774 231.241 150.961 230.937C151.148 230.632 151.395 230.369 151.688 230.163C151.98 229.957 152.311 229.813 152.66 229.74L231.081 213.21C234.143 214.936 233.175 218.145 230.928 218.619L230.929 218.618Z" fill="#CCCCCC"/>
<path d="M233.779 232.131L156.741 248.37C156.066 248.526 155.358 248.421 154.759 248.075C154.159 247.729 153.713 247.169 153.511 246.507C153.419 246.161 153.398 245.801 153.449 245.447C153.501 245.094 153.624 244.754 153.811 244.45C153.998 244.145 154.245 243.882 154.537 243.676C154.829 243.47 155.16 243.326 155.51 243.253L233.93 226.723C236.992 228.448 236.024 231.658 233.778 232.132L233.779 232.131Z" fill="#CCCCCC"/>
<path d="M141.708 259.574L118.196 264.53C117.428 264.691 116.628 264.541 115.971 264.112C115.314 263.684 114.853 263.012 114.691 262.245L108.842 234.499C108.681 233.732 108.832 232.931 109.26 232.274C109.688 231.617 110.36 231.156 111.127 230.994L134.639 226.038C135.407 225.877 136.207 226.028 136.864 226.456C137.521 226.884 137.982 227.556 138.145 228.323L143.993 256.068C144.154 256.836 144.004 257.637 143.575 258.294C143.147 258.951 142.475 259.412 141.708 259.574V259.574Z" fill="#CCCCCC"/>
<path d="M239.386 259.847L121.811 284.629C121.137 284.786 120.428 284.68 119.829 284.335C119.229 283.989 118.784 283.428 118.582 282.766C118.489 282.421 118.468 282.061 118.52 281.707C118.571 281.353 118.694 281.014 118.881 280.71C119.068 280.405 119.315 280.142 119.607 279.936C119.9 279.73 120.231 279.586 120.58 279.512L239.538 254.438C242.6 256.164 241.632 259.373 239.386 259.847V259.847Z" fill="#CCCCCC"/>
<path d="M242.235 273.364L124.661 298.146C123.986 298.303 123.278 298.198 122.679 297.852C122.079 297.506 121.633 296.945 121.431 296.283C121.339 295.938 121.318 295.578 121.369 295.224C121.421 294.871 121.544 294.531 121.731 294.227C121.918 293.922 122.165 293.659 122.457 293.453C122.749 293.247 123.08 293.103 123.43 293.029L242.387 267.955C245.449 269.681 244.482 272.89 242.235 273.364V273.364Z" fill="#CCCCCC"/>
<path d="M245.083 286.872L127.508 311.655C126.834 311.811 126.126 311.706 125.526 311.36C124.927 311.014 124.481 310.454 124.279 309.792C124.186 309.446 124.165 309.086 124.217 308.732C124.268 308.379 124.391 308.039 124.578 307.735C124.765 307.43 125.013 307.167 125.305 306.961C125.597 306.755 125.928 306.611 126.277 306.538L245.235 281.463C248.297 283.189 247.329 286.399 245.083 286.872H245.083Z" fill="#CCCCCC"/>
<path d="M247.931 300.388L130.356 325.171C129.682 325.327 128.973 325.222 128.374 324.876C127.774 324.53 127.329 323.969 127.127 323.308C127.034 322.962 127.013 322.602 127.065 322.248C127.116 321.895 127.239 321.555 127.426 321.251C127.613 320.946 127.86 320.683 128.152 320.477C128.444 320.271 128.775 320.127 129.125 320.053L248.083 294.979C251.145 296.705 250.177 299.914 247.931 300.388V300.388Z" fill="#CCCCCC"/>
<path d="M250.778 313.897L133.203 338.68C132.529 338.836 131.821 338.731 131.221 338.385C130.622 338.039 130.176 337.479 129.974 336.817C129.882 336.472 129.861 336.111 129.912 335.758C129.964 335.404 130.087 335.065 130.274 334.76C130.461 334.456 130.708 334.192 131 333.986C131.292 333.781 131.623 333.636 131.973 333.563L250.93 308.489C253.992 310.214 253.025 313.424 250.778 313.897V313.897Z" fill="#CCCCCC"/>
<path d="M269.534 252.03C269.267 252.515 269.039 253.02 268.851 253.54L220.718 265.485L212.344 256.822L197.619 267.75L210.952 284.526C212.03 285.882 213.517 286.851 215.192 287.289C216.867 287.727 218.639 287.609 220.241 286.954L272.471 265.612C274.187 266.876 276.248 267.587 278.379 267.651C280.51 267.715 282.609 267.128 284.399 265.97C286.188 264.811 287.582 263.136 288.396 261.165C289.209 259.195 289.404 257.024 288.953 254.94C288.503 252.857 287.429 250.96 285.874 249.502C284.319 248.043 282.357 247.093 280.249 246.777C278.141 246.461 275.987 246.795 274.073 247.733C272.159 248.671 270.576 250.17 269.534 252.03L269.534 252.03Z" fill="#FCBDBA"/>
<path d="M105.236 358.323C106.737 357.859 108.118 357.072 109.281 356.018C110.445 354.963 111.363 353.666 111.971 352.218C112.579 350.77 112.862 349.206 112.801 347.637C112.739 346.067 112.334 344.531 111.615 343.135L144.739 251.068L121.735 246.991L96.4085 338.772C94.1437 340.137 92.4581 342.285 91.6711 344.809C90.8841 347.333 91.0505 350.058 92.1386 352.468C93.2268 354.878 95.1611 356.805 97.5751 357.884C99.9891 358.963 102.715 359.119 105.236 358.323V358.323Z" fill="#FCBDBA"/>
<path d="M140.532 267.41L117.819 258.694C117.173 258.446 116.588 258.061 116.104 257.567C115.619 257.072 115.247 256.479 115.013 255.828C114.779 255.176 114.687 254.482 114.746 253.792C114.804 253.103 115.01 252.434 115.35 251.831L127.265 230.705C128.553 227.407 131.097 224.754 134.338 223.329C137.579 221.903 141.253 221.82 144.554 223.098C147.856 224.377 150.517 226.912 151.953 230.148C153.388 233.385 153.483 237.059 152.215 240.364L146.959 263.962C146.808 264.638 146.514 265.273 146.096 265.824C145.677 266.376 145.145 266.831 144.535 267.158C143.925 267.485 143.252 267.677 142.561 267.721C141.87 267.764 141.178 267.659 140.532 267.41V267.41Z" fill="#04A9F4"/>
<path d="M191.797 531.175H204.056L209.889 483.887L191.795 483.888L191.797 531.175Z" fill="#FFB8B8"/>
<path d="M188.67 527.173L212.814 527.172H212.815C214.835 527.172 216.836 527.57 218.703 528.343C220.57 529.116 222.266 530.249 223.695 531.678C225.123 533.107 226.257 534.803 227.03 536.67C227.803 538.537 228.201 540.537 228.201 542.558V543.058L188.671 543.06L188.67 527.173Z" fill="#2F2E41"/>
<path d="M122.797 531.175H135.056L140.889 483.887L122.795 483.888L122.797 531.175Z" fill="#FFB8B8"/>
<path d="M119.67 527.173L143.814 527.172H143.815C145.835 527.172 147.836 527.57 149.703 528.343C151.57 529.116 153.266 530.249 154.695 531.678C156.123 533.107 157.257 534.803 158.03 536.67C158.803 538.537 159.201 540.537 159.201 542.558V543.058L119.671 543.06L119.67 527.173Z" fill="#2F2E41"/>
<path d="M135.649 512.143H120.135C119.526 512.142 118.923 512.019 118.363 511.779C117.804 511.539 117.298 511.189 116.878 510.748C116.458 510.307 116.132 509.786 115.919 509.215C115.706 508.645 115.611 508.037 115.64 507.429L123.009 349.097L123.474 349.084L198.393 347.131L213.053 505.554C213.11 506.148 213.047 506.747 212.87 507.316C212.693 507.886 212.404 508.415 212.02 508.872C211.637 509.329 211.167 509.705 210.636 509.978C210.106 510.252 209.527 510.417 208.932 510.465L191.506 511.858C190.411 511.945 189.322 511.629 188.445 510.97C187.567 510.31 186.96 509.352 186.739 508.276L164.449 395.5C164.388 395.157 164.206 394.848 163.937 394.628C163.667 394.408 163.328 394.292 162.98 394.301H162.974C162.625 394.293 162.284 394.411 162.015 394.633C161.746 394.856 161.566 395.167 161.507 395.512L140.065 508.512C139.862 509.534 139.311 510.454 138.506 511.116C137.701 511.778 136.692 512.141 135.649 512.143V512.143Z" fill="#2F2E41"/>
<path d="M155.833 367.651C144.127 367.651 132.103 364.574 122.135 355.477C121.605 354.996 121.195 354.396 120.94 353.728C120.685 353.059 120.591 352.339 120.666 351.627C121.733 342.041 126.908 292.546 123.993 259.483C123.425 253.308 124.299 247.085 126.547 241.305C128.796 235.525 132.357 230.347 136.949 226.179C141.461 222.02 146.878 218.967 152.771 217.261C158.665 215.554 164.875 215.24 170.911 216.345H170.911C171.217 216.399 171.523 216.457 171.829 216.516C191.493 220.321 205.155 238.52 203.609 258.847C201.353 288.507 199.331 328.626 202.506 351.314C202.638 352.243 202.476 353.189 202.043 354.02C201.61 354.852 200.927 355.527 200.091 355.951C192.867 359.602 174.765 367.651 155.833 367.651Z" fill="#04A9F4"/>
<path d="M187.883 269.178C187.307 268.794 186.82 268.291 186.456 267.702C186.092 267.114 185.859 266.453 185.774 265.766L182.781 241.777C181.831 238.365 182.273 234.716 184.009 231.629C185.746 228.543 188.635 226.271 192.044 225.311C195.453 224.352 199.104 224.783 202.195 226.511C205.286 228.239 207.566 231.122 208.535 234.528L218.392 256.69C218.673 257.322 218.815 258.008 218.807 258.7C218.799 259.392 218.643 260.074 218.347 260.701C218.052 261.327 217.626 261.882 217.097 262.328C216.568 262.775 215.949 263.102 215.282 263.287L191.844 269.809C191.178 269.995 190.478 270.035 189.795 269.926C189.111 269.817 188.459 269.562 187.883 269.178V269.178Z" fill="#04A9F4"/>
<path d="M495.695 174H339.695C335.188 173.995 330.867 172.202 327.68 169.015C324.493 165.828 322.7 161.507 322.695 157V30C322.7 25.4929 324.493 21.1718 327.68 17.9848C330.867 14.7978 335.188 13.0051 339.695 13H495.695C500.202 13.0051 504.523 14.7978 507.711 17.9848C510.898 21.1718 512.69 25.4929 512.695 30V157C512.69 161.507 510.898 165.828 507.711 169.015C504.523 172.202 500.202 173.995 495.695 174V174ZM339.695 15C335.718 15.0045 331.906 16.5863 329.094 19.3984C326.282 22.2104 324.7 26.0231 324.695 30V157C324.7 160.977 326.282 164.79 329.094 167.602C331.906 170.414 335.718 171.996 339.695 172H495.695C499.672 171.996 503.485 170.414 506.297 167.602C509.109 164.79 510.691 160.977 510.695 157V30C510.691 26.0231 509.109 22.2104 506.297 19.3984C503.485 16.5863 499.672 15.0045 495.695 15H339.695Z" fill="#3F3D56"/>
<path d="M478.9 51.1379H428.196C427.751 51.152 427.318 50.9028 426.986 50.4407C426.655 49.9787 426.448 49.3382 426.409 48.6489C426.396 48.292 426.431 47.935 426.51 47.5996C426.59 47.2642 426.712 46.9575 426.871 46.6981C427.029 46.4387 427.22 46.2321 427.431 46.091C427.642 45.9498 427.87 45.877 428.1 45.877H479.713C481.414 48.197 480.378 51.138 478.899 51.138L478.9 51.1379Z" fill="#CCCCCC"/>
<path d="M478.9 64.948H428.196C427.751 64.962 427.318 64.7129 426.986 64.2508C426.655 63.7888 426.448 63.1483 426.409 62.4589C426.396 62.1021 426.431 61.7451 426.51 61.4097C426.59 61.0743 426.712 60.7676 426.871 60.5082C427.029 60.2488 427.22 60.0422 427.431 59.901C427.642 59.7598 427.87 59.687 428.1 59.687H479.714C481.414 62.007 480.378 64.948 478.899 64.948L478.9 64.948Z" fill="#CCCCCC"/>
<path d="M477.734 93.2241H357.576C356.884 93.2381 356.213 92.9889 355.698 92.5269C355.182 92.0648 354.862 91.4244 354.801 90.735C354.781 90.3782 354.835 90.0212 354.959 89.6858C355.082 89.3504 355.272 89.0437 355.518 88.7843C355.764 88.5249 356.06 88.3183 356.388 88.1771C356.716 88.0359 357.07 87.9631 357.427 87.9631H478.999C481.639 90.2831 480.03 93.2241 477.734 93.2241V93.2241Z" fill="#CCCCCC"/>
<path d="M477.734 107.038H357.576C356.884 107.052 356.213 106.803 355.698 106.341C355.182 105.879 354.862 105.238 354.801 104.549C354.781 104.192 354.835 103.835 354.959 103.5C355.082 103.164 355.272 102.858 355.518 102.598C355.764 102.339 356.06 102.132 356.388 101.991C356.716 101.85 357.07 101.777 357.427 101.777H478.999C481.639 104.097 480.03 107.038 477.734 107.038V107.038Z" fill="#CCCCCC"/>
<path d="M477.734 120.843H357.576C356.884 120.857 356.213 120.608 355.698 120.146C355.182 119.684 354.862 119.043 354.801 118.354C354.781 117.997 354.835 117.64 354.959 117.305C355.082 116.969 355.272 116.663 355.518 116.403C355.764 116.144 356.06 115.937 356.388 115.796C356.716 115.655 357.07 115.582 357.427 115.582H478.999C481.639 117.902 480.03 120.843 477.734 120.843V120.843Z" fill="#CCCCCC"/>
<path d="M477.734 134.656H357.576C356.884 134.67 356.213 134.421 355.698 133.959C355.182 133.497 354.862 132.856 354.801 132.167C354.781 131.81 354.835 131.453 354.959 131.118C355.082 130.782 355.272 130.476 355.518 130.216C355.764 129.957 356.06 129.75 356.388 129.609C356.716 129.468 357.07 129.395 357.427 129.395H478.999C481.639 131.715 480.03 134.656 477.734 134.656V134.656Z" fill="#CCCCCC"/>
<path d="M477.734 148.462H357.576C356.884 148.476 356.213 148.227 355.698 147.765C355.182 147.303 354.862 146.662 354.801 145.973C354.781 145.616 354.835 145.259 354.959 144.924C355.082 144.588 355.272 144.281 355.518 144.022C355.764 143.763 356.06 143.556 356.388 143.415C356.716 143.274 357.07 143.201 357.427 143.201H478.999C481.639 145.521 480.03 148.462 477.734 148.462Z" fill="#CCCCCC"/>
<path d="M461.695 0C463.021 0.00151655 464.292 0.528787 465.229 1.46614C466.167 2.40349 466.694 3.67438 466.695 5V21C466.694 22.3256 466.167 23.5965 465.229 24.5339C464.292 25.4712 463.021 25.9985 461.695 26H373.695C372.37 25.9985 371.099 25.4712 370.161 24.5339C369.224 23.5965 368.697 22.3256 368.695 21V5C368.697 3.67438 369.224 2.40349 370.161 1.46614C371.099 0.528787 372.37 0.00151655 373.695 0" fill="#04A9F4"/>
<path d="M720.695 331H564.695C560.188 330.995 555.867 329.202 552.68 326.015C549.493 322.828 547.7 318.507 547.695 314V187C547.7 182.493 549.493 178.172 552.68 174.985C555.867 171.798 560.188 170.005 564.695 170H720.695C725.202 170.005 729.523 171.798 732.711 174.985C735.898 178.172 737.69 182.493 737.695 187V314C737.69 318.507 735.898 322.828 732.711 326.015C729.523 329.202 725.202 330.995 720.695 331ZM564.695 172C560.718 172.004 556.906 173.586 554.094 176.398C551.282 179.21 549.7 183.023 549.695 187V314C549.7 317.977 551.282 321.79 554.094 324.602C556.906 327.414 560.718 328.996 564.695 329H720.695C724.672 328.996 728.485 327.414 731.297 324.602C734.109 321.79 735.691 317.977 735.695 314V187C735.691 183.023 734.109 179.21 731.297 176.398C728.485 173.586 724.672 172.004 720.695 172H564.695Z" fill="#3F3D56"/>
<path d="M702.964 208.138H624.233C623.541 208.152 622.869 207.903 622.354 207.441C621.839 206.979 621.518 206.338 621.457 205.649C621.438 205.292 621.491 204.935 621.615 204.6C621.738 204.264 621.928 203.958 622.174 203.698C622.42 203.439 622.716 203.232 623.044 203.091C623.373 202.95 623.726 202.877 624.084 202.877H704.227C706.867 205.197 705.258 208.138 702.963 208.138H702.964Z" fill="#3F3D56"/>
<path d="M702.964 221.948H624.233C623.541 221.962 622.869 221.713 622.354 221.251C621.839 220.789 621.518 220.148 621.457 219.459C621.438 219.102 621.491 218.745 621.615 218.41C621.738 218.074 621.928 217.768 622.174 217.508C622.42 217.249 622.716 217.042 623.044 216.901C623.373 216.76 623.726 216.687 624.084 216.687H704.227C706.867 219.007 705.258 221.948 702.963 221.948H702.964Z" fill="#3F3D56"/>
<path d="M607.212 229.811H583.184C582.399 229.81 581.647 229.498 581.092 228.944C580.537 228.389 580.225 227.637 580.225 226.852V198.497C580.225 197.713 580.537 196.96 581.092 196.406C581.647 195.851 582.399 195.539 583.184 195.538H607.212C607.996 195.539 608.748 195.851 609.303 196.406C609.857 196.961 610.17 197.713 610.171 198.497V226.852C610.17 227.637 609.858 228.389 609.303 228.944C608.748 229.498 607.996 229.81 607.212 229.811V229.811Z" fill="#CCCCCC"/>
<path d="M702.212 306.811H678.184C677.399 306.81 676.647 306.498 676.092 305.944C675.537 305.389 675.225 304.637 675.225 303.852V287.497C675.225 286.713 675.537 285.96 676.092 285.406C676.647 284.851 677.399 284.539 678.184 284.538H702.212C702.996 284.539 703.748 284.851 704.303 285.406C704.857 285.961 705.17 286.713 705.171 287.497V303.852C705.17 304.637 704.858 305.389 704.303 305.944C703.748 306.498 702.996 306.81 702.212 306.811V306.811Z" fill="#3F3D56"/>
<path d="M702.734 250.224H582.576C581.884 250.238 581.213 249.989 580.698 249.527C580.182 249.065 579.862 248.424 579.801 247.735C579.781 247.378 579.835 247.021 579.959 246.686C580.082 246.35 580.272 246.044 580.518 245.784C580.764 245.525 581.06 245.318 581.388 245.177C581.716 245.036 582.07 244.963 582.427 244.963H703.999C706.639 247.283 705.03 250.224 702.734 250.224V250.224Z" fill="#CCCCCC"/>
<path d="M702.734 264.038H582.576C581.884 264.052 581.213 263.803 580.698 263.341C580.182 262.879 579.862 262.238 579.801 261.549C579.781 261.192 579.835 260.835 579.959 260.5C580.082 260.164 580.272 259.858 580.518 259.598C580.764 259.339 581.06 259.132 581.388 258.991C581.716 258.85 582.07 258.777 582.427 258.777H703.999C706.639 261.097 705.03 264.038 702.734 264.038V264.038Z" fill="#CCCCCC"/>
<path d="M702.734 277.843H582.576C581.884 277.857 581.213 277.608 580.698 277.146C580.182 276.684 579.862 276.043 579.801 275.354C579.781 274.997 579.835 274.64 579.959 274.305C580.082 273.969 580.272 273.663 580.518 273.403C580.764 273.144 581.06 272.937 581.388 272.796C581.716 272.655 582.07 272.582 582.427 272.582H703.999C706.639 274.902 705.03 277.843 702.734 277.843V277.843Z" fill="#CCCCCC"/>
<path d="M639.734 291.656H582.576C581.884 291.67 581.213 291.421 580.698 290.959C580.182 290.497 579.862 289.856 579.801 289.167C579.781 288.81 579.835 288.453 579.959 288.118C580.082 287.782 580.272 287.476 580.518 287.216C580.764 286.957 581.06 286.75 581.388 286.609C581.716 286.468 582.07 286.395 582.427 286.395H640.999C643.639 288.715 642.03 291.656 639.734 291.656V291.656Z" fill="#CCCCCC"/>
<path d="M639.734 305.462H582.576C581.884 305.476 581.213 305.227 580.698 304.765C580.182 304.303 579.862 303.662 579.801 302.973C579.781 302.616 579.835 302.259 579.959 301.924C580.082 301.588 580.272 301.281 580.518 301.022C580.764 300.763 581.06 300.556 581.388 300.415C581.716 300.274 582.07 300.201 582.427 300.201H640.999C643.639 302.521 642.03 305.462 639.734 305.462V305.462Z" fill="#CCCCCC"/>
<path d="M686.695 183H598.695C597.37 182.998 596.099 182.471 595.161 181.534C594.224 180.596 593.697 179.326 593.695 178V162C593.697 160.674 594.224 159.404 595.161 158.466C596.099 157.529 597.37 157.002 598.695 157H686.695C688.021 157.002 689.292 157.529 690.229 158.466C691.167 159.404 691.694 160.674 691.695 162V178C691.694 179.326 691.167 180.596 690.229 181.534C689.292 182.471 688.021 182.998 686.695 183Z" fill="#04A9F4"/>
<path d="M382.305 544H1.30469C1.03947 544 0.785116 543.895 0.59758 543.707C0.410044 543.52 0.304688 543.265 0.304688 543C0.304688 542.735 0.410044 542.48 0.59758 542.293C0.785116 542.105 1.03947 542 1.30469 542H382.305C382.57 542 382.824 542.105 383.012 542.293C383.199 542.48 383.305 542.735 383.305 543C383.305 543.265 383.199 543.52 383.012 543.707C382.824 543.895 382.57 544 382.305 544Z" fill="#3F3D56"/>
<path d="M97.0685 29.7912C100.64 29.7912 103.535 26.8959 103.535 23.3243C103.535 19.7527 100.64 16.8574 97.0685 16.8574C93.4969 16.8574 90.6016 19.7527 90.6016 23.3243C90.6016 26.8959 93.4969 29.7912 97.0685 29.7912Z" fill="#04A9F4"/>
<path d="M97.0685 55.5644C100.64 55.5644 103.535 52.6691 103.535 49.0975C103.535 45.5259 100.64 42.6306 97.0685 42.6306C93.4969 42.6306 90.6016 45.5259 90.6016 49.0975C90.6016 52.6691 93.4969 55.5644 97.0685 55.5644Z" fill="#04A9F4"/>
<path d="M97.0685 81.3378C100.64 81.3378 103.535 78.4425 103.535 74.8709C103.535 71.2994 100.64 68.4041 97.0685 68.4041C93.4969 68.4041 90.6016 71.2994 90.6016 74.8709C90.6016 78.4425 93.4969 81.3378 97.0685 81.3378Z" fill="#04A9F4"/>
<path d="M97.0685 107.111C100.64 107.111 103.535 104.216 103.535 100.644C103.535 97.0726 100.64 94.1772 97.0685 94.1772C93.4969 94.1772 90.6016 97.0726 90.6016 100.644C90.6016 104.216 93.4969 107.111 97.0685 107.111Z" fill="#04A9F4"/>
<path d="M124.068 29.7912C127.64 29.7912 130.535 26.8959 130.535 23.3243C130.535 19.7527 127.64 16.8574 124.068 16.8574C120.497 16.8574 117.602 19.7527 117.602 23.3243C117.602 26.8959 120.497 29.7912 124.068 29.7912Z" fill="#04A9F4"/>
<path d="M124.068 55.5644C127.64 55.5644 130.535 52.6691 130.535 49.0975C130.535 45.5259 127.64 42.6306 124.068 42.6306C120.497 42.6306 117.602 45.5259 117.602 49.0975C117.602 52.6691 120.497 55.5644 124.068 55.5644Z" fill="#04A9F4"/>
<path d="M124.068 81.3378C127.64 81.3378 130.535 78.4425 130.535 74.8709C130.535 71.2994 127.64 68.4041 124.068 68.4041C120.497 68.4041 117.602 71.2994 117.602 74.8709C117.602 78.4425 120.497 81.3378 124.068 81.3378Z" fill="#04A9F4"/>
<path d="M124.068 107.111C127.64 107.111 130.535 104.216 130.535 100.644C130.535 97.0726 127.64 94.1772 124.068 94.1772C120.497 94.1772 117.602 97.0726 117.602 100.644C117.602 104.216 120.497 107.111 124.068 107.111Z" fill="#04A9F4"/>
<path d="M151.068 29.7912C154.64 29.7912 157.535 26.8959 157.535 23.3243C157.535 19.7527 154.64 16.8574 151.068 16.8574C147.497 16.8574 144.602 19.7527 144.602 23.3243C144.602 26.8959 147.497 29.7912 151.068 29.7912Z" fill="#04A9F4"/>
<path d="M151.068 55.5644C154.64 55.5644 157.535 52.6691 157.535 49.0975C157.535 45.5259 154.64 42.6306 151.068 42.6306C147.497 42.6306 144.602 45.5259 144.602 49.0975C144.602 52.6691 147.497 55.5644 151.068 55.5644Z" fill="#04A9F4"/>
<path d="M151.068 81.3378C154.64 81.3378 157.535 78.4425 157.535 74.8709C157.535 71.2994 154.64 68.4041 151.068 68.4041C147.497 68.4041 144.602 71.2994 144.602 74.8709C144.602 78.4425 147.497 81.3378 151.068 81.3378Z" fill="#04A9F4"/>
<path d="M151.068 107.111C154.64 107.111 157.535 104.216 157.535 100.644C157.535 97.0726 154.64 94.1772 151.068 94.1772C147.497 94.1772 144.602 97.0726 144.602 100.644C144.602 104.216 147.497 107.111 151.068 107.111Z" fill="#04A9F4"/>
<path d="M178.068 29.7912C181.64 29.7912 184.535 26.8959 184.535 23.3243C184.535 19.7527 181.64 16.8574 178.068 16.8574C174.497 16.8574 171.602 19.7527 171.602 23.3243C171.602 26.8959 174.497 29.7912 178.068 29.7912Z" fill="#04A9F4"/>
<path d="M178.068 55.5644C181.64 55.5644 184.535 52.6691 184.535 49.0975C184.535 45.5259 181.64 42.6306 178.068 42.6306C174.497 42.6306 171.602 45.5259 171.602 49.0975C171.602 52.6691 174.497 55.5644 178.068 55.5644Z" fill="#04A9F4"/>
<path d="M178.068 81.3378C181.64 81.3378 184.535 78.4425 184.535 74.8709C184.535 71.2994 181.64 68.4041 178.068 68.4041C174.497 68.4041 171.602 71.2994 171.602 74.8709C171.602 78.4425 174.497 81.3378 178.068 81.3378Z" fill="#04A9F4"/>
<path d="M178.068 107.111C181.64 107.111 184.535 104.216 184.535 100.644C184.535 97.0726 181.64 94.1772 178.068 94.1772C174.497 94.1772 171.602 97.0726 171.602 100.644C171.602 104.216 174.497 107.111 178.068 107.111Z" fill="#04A9F4"/>
<path d="M205.068 29.7912C208.64 29.7912 211.535 26.8959 211.535 23.3243C211.535 19.7527 208.64 16.8574 205.068 16.8574C201.497 16.8574 198.602 19.7527 198.602 23.3243C198.602 26.8959 201.497 29.7912 205.068 29.7912Z" fill="#04A9F4"/>
<path d="M205.068 55.5644C208.64 55.5644 211.535 52.6691 211.535 49.0975C211.535 45.5259 208.64 42.6306 205.068 42.6306C201.497 42.6306 198.602 45.5259 198.602 49.0975C198.602 52.6691 201.497 55.5644 205.068 55.5644Z" fill="#04A9F4"/>
<path d="M205.068 81.3378C208.64 81.3378 211.535 78.4425 211.535 74.8709C211.535 71.2994 208.64 68.4041 205.068 68.4041C201.497 68.4041 198.602 71.2994 198.602 74.8709C198.602 78.4425 201.497 81.3378 205.068 81.3378Z" fill="#04A9F4"/>
<path d="M205.068 107.111C208.64 107.111 211.535 104.216 211.535 100.644C211.535 97.0726 208.64 94.1772 205.068 94.1772C201.497 94.1772 198.602 97.0726 198.602 100.644C198.602 104.216 201.497 107.111 205.068 107.111Z" fill="#04A9F4"/>
<path d="M232.068 29.7912C235.64 29.7912 238.535 26.8959 238.535 23.3243C238.535 19.7527 235.64 16.8574 232.068 16.8574C228.497 16.8574 225.602 19.7527 225.602 23.3243C225.602 26.8959 228.497 29.7912 232.068 29.7912Z" fill="#04A9F4"/>
<path d="M232.068 55.5644C235.64 55.5644 238.535 52.6691 238.535 49.0975C238.535 45.5259 235.64 42.6306 232.068 42.6306C228.497 42.6306 225.602 45.5259 225.602 49.0975C225.602 52.6691 228.497 55.5644 232.068 55.5644Z" fill="#04A9F4"/>
<path d="M232.068 81.3378C235.64 81.3378 238.535 78.4425 238.535 74.8709C238.535 71.2994 235.64 68.4041 232.068 68.4041C228.497 68.4041 225.602 71.2994 225.602 74.8709C225.602 78.4425 228.497 81.3378 232.068 81.3378Z" fill="#04A9F4"/>
<path d="M232.068 107.111C235.64 107.111 238.535 104.216 238.535 100.644C238.535 97.0726 235.64 94.1772 232.068 94.1772C228.497 94.1772 225.602 97.0726 225.602 100.644C225.602 104.216 228.497 107.111 232.068 107.111Z" fill="#04A9F4"/>
<path d="M602.068 387.791C605.64 387.791 608.535 384.896 608.535 381.324C608.535 377.753 605.64 374.857 602.068 374.857C598.497 374.857 595.602 377.753 595.602 381.324C595.602 384.896 598.497 387.791 602.068 387.791Z" fill="#04A9F4"/>
<path d="M602.068 413.564C605.64 413.564 608.535 410.669 608.535 407.098C608.535 403.526 605.64 400.631 602.068 400.631C598.497 400.631 595.602 403.526 595.602 407.098C595.602 410.669 598.497 413.564 602.068 413.564Z" fill="#04A9F4"/>
<path d="M602.068 439.338C605.64 439.338 608.535 436.443 608.535 432.871C608.535 429.299 605.64 426.404 602.068 426.404C598.497 426.404 595.602 429.299 595.602 432.871C595.602 436.443 598.497 439.338 602.068 439.338Z" fill="#04A9F4"/>
<path d="M629.068 387.791C632.64 387.791 635.535 384.896 635.535 381.324C635.535 377.753 632.64 374.857 629.068 374.857C625.497 374.857 622.602 377.753 622.602 381.324C622.602 384.896 625.497 387.791 629.068 387.791Z" fill="#04A9F4"/>
<path d="M629.068 413.564C632.64 413.564 635.535 410.669 635.535 407.098C635.535 403.526 632.64 400.631 629.068 400.631C625.497 400.631 622.602 403.526 622.602 407.098C622.602 410.669 625.497 413.564 629.068 413.564Z" fill="#04A9F4"/>
<path d="M629.068 439.338C632.64 439.338 635.535 436.443 635.535 432.871C635.535 429.299 632.64 426.404 629.068 426.404C625.497 426.404 622.602 429.299 622.602 432.871C622.602 436.443 625.497 439.338 629.068 439.338Z" fill="#04A9F4"/>
<path d="M656.068 387.791C659.64 387.791 662.535 384.896 662.535 381.324C662.535 377.753 659.64 374.857 656.068 374.857C652.497 374.857 649.602 377.753 649.602 381.324C649.602 384.896 652.497 387.791 656.068 387.791Z" fill="#04A9F4"/>
<path d="M656.068 413.564C659.64 413.564 662.535 410.669 662.535 407.098C662.535 403.526 659.64 400.631 656.068 400.631C652.497 400.631 649.602 403.526 649.602 407.098C649.602 410.669 652.497 413.564 656.068 413.564Z" fill="#04A9F4"/>
<path d="M656.068 439.338C659.64 439.338 662.535 436.443 662.535 432.871C662.535 429.299 659.64 426.404 656.068 426.404C652.497 426.404 649.602 429.299 649.602 432.871C649.602 436.443 652.497 439.338 656.068 439.338Z" fill="#04A9F4"/>
<path d="M683.068 387.791C686.64 387.791 689.535 384.896 689.535 381.324C689.535 377.753 686.64 374.857 683.068 374.857C679.497 374.857 676.602 377.753 676.602 381.324C676.602 384.896 679.497 387.791 683.068 387.791Z" fill="#04A9F4"/>
<path d="M683.068 413.564C686.64 413.564 689.535 410.669 689.535 407.098C689.535 403.526 686.64 400.631 683.068 400.631C679.497 400.631 676.602 403.526 676.602 407.098C676.602 410.669 679.497 413.564 683.068 413.564Z" fill="#04A9F4"/>
<path d="M683.068 439.338C686.64 439.338 689.535 436.443 689.535 432.871C689.535 429.299 686.64 426.404 683.068 426.404C679.497 426.404 676.602 429.299 676.602 432.871C676.602 436.443 679.497 439.338 683.068 439.338Z" fill="#04A9F4"/>
<path d="M190.607 181.494C191.612 182.409 192.851 183.355 192.851 184.544C192.688 185.506 192.249 186.411 191.578 187.168C188.564 191.866 191.31 198.547 187.693 202.818C186.34 204.317 184.499 205.385 182.435 205.868C180.365 206.136 178.36 206.724 176.507 207.607C175.113 208.856 174.319 210.555 174.296 212.336C174.095 214.44 174.497 216.576 174.296 218.711C174.347 219.427 174.195 220.142 173.855 220.788C173.515 221.435 172.998 221.991 172.354 222.403C171.716 222.676 171.014 222.801 170.311 222.769C166.257 222.927 162.198 222.64 158.22 221.914C157.654 221.831 157.116 221.633 156.646 221.335C156.159 220.855 155.853 220.246 155.775 219.596C154.067 212.549 152.426 205.472 150.584 198.425C149.553 195.886 148.298 193.427 146.833 191.073C145.46 187.534 144.991 183.758 145.459 180.03C145.903 177.236 146.95 174.551 148.541 172.128C149.845 169.846 151.728 167.88 154.033 166.393C155.749 165.472 157.598 164.774 159.526 164.319C166.225 162.458 176.574 159.956 182.335 165.143C187.157 169.444 185.617 176.948 190.607 181.494Z" fill="#FCBDBA"/>
<path d="M191.275 189.395C189.868 188.602 185.246 190.28 183.571 190.249C178.112 190.097 173.524 192.537 169.237 189.548C165.965 186.754 163.769 183.074 162.974 179.054C162.94 178.841 162.94 178.625 162.974 178.413C163.014 178.137 163.129 177.875 163.309 177.65C165.352 174.966 169.471 174.6 172.954 173.898C179.158 172.28 184.74 169.109 189.064 164.746C190.234 163.87 191.009 162.632 191.241 161.269C191.174 160.492 190.905 159.742 190.457 159.079C190.008 158.416 189.393 157.859 188.662 157.455C186.472 156.173 184.022 155.302 181.457 154.893C178.892 154.485 176.263 154.547 173.725 155.076C168.676 156.145 163.69 157.448 158.787 158.981C154.065 160.201 149.175 160.933 144.452 162.306C143.456 162.576 142.509 162.977 141.639 163.495C140.528 164.299 139.663 165.35 139.127 166.546C138.285 168.097 137.848 169.804 137.848 171.534C137.848 173.264 138.285 174.971 139.127 176.522C139.487 176.978 139.738 177.497 139.864 178.047C139.899 178.582 139.831 179.119 139.663 179.633C138.491 184.301 141.07 188.968 143.548 193.178L150.247 204.252C150.918 205.579 151.901 206.756 153.127 207.699C153.767 208.13 154.542 208.363 155.337 208.363C156.133 208.363 156.908 208.13 157.548 207.699C158.888 206.662 158.955 204.648 160.562 203.794C161.114 203.617 161.703 203.559 162.284 203.622C162.864 203.685 163.421 203.87 163.911 204.16C166.792 205.411 169.17 207.394 171.95 208.797C176.792 211.264 182.501 211.91 187.858 210.597C189.258 210.282 190.578 209.722 191.744 208.95C192.872 207.919 193.659 206.62 194.014 205.201C194.37 203.782 194.279 202.301 193.753 200.927C193.217 197.967 194.255 191.073 191.275 189.395Z" fill="#473F47"/>
<path d="M405.792 75.9783L407.797 67.7347L413.458 67.7685L410.839 55.2295L414.275 41.1014L423.669 83.7058L416.572 83.6633L414.969 76.0332L405.792 75.9783Z" fill="#3F3D56"/>
<path d="M399.629 83.6909L410.18 41.24L403.338 41.1993L396.13 68.6297L391.259 41.1274L386 41.0961L380.461 68.5364L376.728 55.9951L373.192 73.577L376.631 83.5539L383.364 83.594L388.368 58.9862L392.879 83.6506L399.629 83.6909Z" fill="#04A9F4"/>
<path d="M362.197 68.9856L366.404 69.0106C367.678 69.0181 368.814 68.788 369.812 68.3203L370.93 62.7455L374.056 47.1649C373.827 46.5521 373.566 45.9724 373.272 45.4258C371.726 42.5391 369.45 41.0869 366.442 41.069L355.865 41.0063L355.634 83.5526L362.117 83.5911L362.197 68.9856ZM367.864 50.866C368.468 51.8916 368.766 53.2609 368.756 54.9742C368.747 56.7007 368.471 58.0683 367.93 59.0772C367.336 60.1983 366.25 60.7541 364.673 60.7447L362.242 60.7303L362.304 49.3L364.753 49.3145C366.223 49.3232 367.26 49.8404 367.864 50.866Z" fill="#3F3D56"/>
</g>
<defs>
<clipPath id="clip0">
<rect width="737.39" height="544" fill="white" transform="translate(0.304688)"/>
</clipPath>
</defs>
</svg>
