<svg width="263" height="232" viewBox="0 0 263 232" fill="none" xmlns="http://www.w3.org/2000/svg">
<g clip-path="url(#clip0)">
<path opacity="0.18" d="M261.712 188.957C255.486 214.086 226.331 228.837 198.824 231.39C195.151 231.734 191.469 231.921 187.795 231.976C167.092 232.312 146.372 228.727 125.593 227.33C122.455 227.119 119.317 226.955 116.179 226.869C86.5716 226.018 54.1694 230.867 29.5749 215.452C10.1771 203.302 0.670649 180.68 0.0430238 158.901C-0.584601 137.122 6.43643 115.828 14.1855 95.2747C24.1522 68.8418 36.0269 41.9951 57.6088 22.5121C77.0652 4.96572 101.794 -2.14811 128.338 0.553741C153.083 3.06818 178.615 4.1458 203.117 7.2459C238.172 11.6813 265.687 45.6028 260.725 78.3061C258.884 90.4567 253.252 101.975 252.24 114.227C250.139 139.418 267.813 164.305 261.712 188.957Z" fill="#68E1FD"/>
<path d="M187.794 231.969C167.09 232.304 146.37 228.72 125.592 227.322C126.479 224.199 127.363 221.057 128.245 217.897C129.826 212.298 130.471 212.29 136.496 213.376C147.301 215.314 158.328 215.959 169.308 215.297C170.739 215.211 185.158 214.235 185.208 213.415C185.018 219.688 185.891 225.95 187.794 231.969V231.969Z" fill="#080608"/>
<path d="M126.939 102.741C129.918 108.933 134.721 115.656 142.002 116.016C146.061 116.203 149.918 114.235 152.948 111.705C161.216 104.794 164.421 94.0337 165.601 83.7339C166.203 78.4942 166.27 72.8015 163.157 68.413C160.044 64.0244 154.672 61.9317 149.341 60.6823C138.596 58.16 122.981 59.8233 118.763 71.3647C115.441 80.3839 123.089 94.7365 126.939 102.741Z" fill="#F38A6B"/>
<path d="M160.806 85.6469C160.806 85.6079 160.806 85.5688 160.806 85.5298V85.6235C160.806 85.8187 160.856 86.0217 160.873 86.2326C160.833 86.0391 160.805 85.8435 160.789 85.6469H160.806Z" fill="#32406A"/>
<path d="M168.605 76.4793C168.421 77.0494 168.228 77.6116 168.036 78.1739C167.115 80.8445 166.192 83.5151 165.266 86.1857C164.819 84.6388 163.955 83.2246 162.755 82.0783C162.495 81.823 162.215 81.5855 161.918 81.3677C161.081 82.6088 160.688 84.0665 160.797 85.5298C160.262 82.5546 157.626 80.1885 154.939 78.4081C152.052 76.4872 148.797 74.7614 147.023 71.8956C146.721 71.2698 146.292 70.7048 145.759 70.2323C145.009 69.7987 144.127 69.6067 143.249 69.6857C141.734 69.6857 140.144 69.8575 138.596 69.8965C136.328 69.9434 134.136 69.756 132.32 68.5612C131.519 67.8936 130.654 67.2975 129.734 66.7808C128.06 66.1014 126.152 66.6402 124.604 67.4914C123.033 68.3659 121.671 69.5314 120.602 70.9161C119.533 72.3008 118.779 73.8752 118.386 75.5423C117.893 77.7522 117.893 80.3681 115.993 81.7893C114.403 82.9607 111.985 82.7108 110.353 81.5941C108.787 80.3775 107.698 78.7104 107.257 76.8542C106.83 75.3627 106.57 73.7306 105.407 72.614C104.043 71.3333 101.901 71.2318 100.093 70.5681C98.3995 69.9422 96.9851 68.7963 96.0833 67.3193C95.1815 65.8424 94.8463 64.1226 95.133 62.444C95.4197 60.7653 96.3111 59.228 97.6601 58.0857C99.0092 56.9434 100.735 56.2644 102.554 56.1608C105.424 55.9968 108.545 57.2306 111.039 55.9031C117.407 52.5063 122.537 46.3529 130.78 47.7039C135.106 48.4145 139.324 50.1949 143.684 49.7732C145.634 49.5858 147.517 48.9533 149.466 48.8205C155.383 48.4223 161.065 53.4043 160.998 58.9329C165.232 58.48 168.94 62.0565 169.86 65.9609C169.86 66.0546 169.91 66.1405 169.927 66.2342C170.605 69.6466 169.718 73.1216 168.605 76.4793Z" fill="#32406A"/>
<path d="M169.174 80.0249C169.595 81.2583 169.624 82.5793 169.257 83.8278C168.873 85.662 168.296 87.4563 167.534 89.1847C166.839 90.7464 165.86 92.3863 164.111 92.9095C163.858 93.0013 163.588 93.0404 163.317 93.0243C163.047 93.0081 162.784 92.9369 162.546 92.8158C160.261 91.4336 160.487 85.6239 161.408 83.4452C162.404 81.0947 167.023 75.1054 169.174 80.0249Z" fill="#F38A6B"/>
<path d="M141.558 83.4919C140.297 84.1224 138.896 84.47 137.466 84.5071C135.792 84.5071 132.294 81.61 134.813 81.9536C135.826 82.0864 137.006 83.1405 138.11 83.3904C138.989 83.6013 140.638 83.8824 141.558 83.4919Z" fill="#32406A"/>
<path d="M123.658 87.5838C124.694 87.7558 125.762 87.6135 126.704 87.1778C127.759 86.6077 128.98 82.8048 127.466 83.9449C126.863 84.4056 126.495 85.7644 125.867 86.3578C125.24 86.9513 124.386 87.6541 123.658 87.5838Z" fill="#32406A"/>
<path d="M127.116 90.0044C127.522 89.8768 127.944 89.7955 128.371 89.7623C128.756 89.7059 129.149 89.7245 129.526 89.817C129.719 89.8619 129.896 89.9512 130.042 90.0767C130.189 90.2022 130.299 90.3599 130.363 90.5354C129.185 90.2752 127.95 90.3569 126.823 90.7697C126.161 91.0654 125.576 91.4917 125.107 92.0191C125.235 91.5533 125.486 91.1248 125.836 90.7729C126.187 90.4209 126.627 90.1567 127.116 90.0044V90.0044Z" fill="#32406A"/>
<path d="M138.972 87.7241C139.38 87.5894 139.805 87.5054 140.236 87.4742C140.619 87.4205 141.009 87.4418 141.382 87.5367C141.575 87.5802 141.752 87.6681 141.898 87.7923C142.044 87.9164 142.155 88.0729 142.219 88.2473C141.041 87.9871 139.806 88.0688 138.68 88.4815C138.031 88.7793 137.46 89.2057 137.006 89.731C137.128 89.2698 137.372 88.8444 137.715 88.4938C138.059 88.1433 138.491 87.8786 138.972 87.7241V87.7241Z" fill="#32406A"/>
<path d="M131.893 95.9233C131.424 96.6339 130.78 97.3836 130.972 98.2035C131.078 98.5131 131.266 98.7931 131.517 99.0181C131.768 99.2431 132.076 99.406 132.412 99.4919C133.064 99.7028 133.776 99.7418 134.445 99.898C135.008 100.033 135.55 100.232 136.06 100.491C136.203 100.203 135.943 99.8824 135.65 99.7106C135.339 99.59 135.055 99.4151 134.813 99.1952C134.403 98.6876 134.813 97.8911 134.412 97.3679C134.127 96.9853 133.575 96.9228 133.131 96.6651C132.864 96.4897 132.648 96.2552 132.502 95.9826C132.356 95.7101 132.285 95.408 132.295 95.1034C132.284 94.6515 132.399 94.2049 132.629 93.8071C132.839 94.4318 132.295 95.3142 131.893 95.9233Z" fill="#EB737F"/>
<path d="M139.45 103.123C137.872 103.576 136.243 103.856 134.596 103.959C134.434 103.954 134.274 104.001 134.144 104.092C133.918 104.287 134.077 104.631 134.144 104.912C134.246 105.326 134.322 105.746 134.37 106.169C134.4 106.383 134.495 106.585 134.643 106.751C134.791 106.917 134.987 107.04 135.207 107.106C135.645 107.135 136.078 107.01 136.421 106.755C137.472 106.214 138.66 105.944 139.86 105.974C140.134 105.967 140.405 106.018 140.655 106.122C140.853 106.234 141.038 106.365 141.207 106.513C141.512 106.741 141.869 106.901 142.251 106.978C142.633 107.056 143.029 107.048 143.408 106.958C143.251 106.784 143.061 106.638 142.847 106.528C141.83 105.991 141.044 105.14 140.627 104.121C140.21 103.101 140.187 101.978 140.563 100.945C140.396 101.835 140.412 102.827 139.45 103.123Z" fill="#32406A"/>
<path d="M138.379 103.904C138.111 104.055 137.874 104.248 137.676 104.474C137.54 104.66 137.433 104.862 137.358 105.076L136.998 105.919C137.427 105.951 137.859 105.906 138.27 105.786C138.907 105.659 139.553 105.578 140.203 105.544C140.287 105.544 140.387 105.544 140.429 105.458C140.445 105.427 140.454 105.392 140.454 105.357C140.454 105.322 140.445 105.287 140.429 105.255C140.295 104.943 140.094 104.662 139.952 104.365C139.81 104.068 139.952 103.49 139.575 103.404C139.199 103.319 138.638 103.701 138.379 103.904Z" fill="#EB737F"/>
<path d="M133.978 132.453C137.124 141.223 136.722 150.764 132.848 159.276C132.127 161.075 130.983 162.7 129.501 164.032C128.044 165.079 126.421 165.907 124.689 166.484C108.362 172.965 91.1487 189.083 71.9099 183.991C68.8388 183.21 65.801 181.695 64.1357 179.158C63.5455 178.236 63.1268 177.227 62.8972 176.175C62.6098 174.82 62.5057 173.438 62.5876 172.059C63.073 161.127 70.4873 151.678 75.4414 141.738C78.7218 135.171 80.9979 128.158 84.1946 121.591C85.3814 119.108 86.7516 116.705 88.2951 114.399C88.6874 113.512 89.4162 112.79 90.3424 112.372C91.2686 111.955 92.3272 111.87 93.3161 112.135C96.4537 112.485 99.5405 113.155 102.521 114.134C102.697 120.381 100.011 126.339 98.1112 132.328C95.9169 139.26 94.7319 146.435 94.5881 153.662C105.965 149.174 116.447 142.925 125.593 135.178C129.718 131.68 136.472 125.722 136.639 134.928C136.756 140.754 134.036 147.009 130.296 151.569C128.546 153.614 126.647 155.545 124.614 157.348L116.739 164.649C110.613 170.334 104.379 176.089 96.8727 180.087C96.6495 180.212 96.4236 180.329 96.1948 180.438" fill="#68E1FD"/>
<path d="M133.978 132.453C137.124 141.223 136.722 150.764 132.848 159.276C132.127 161.075 130.983 162.7 129.501 164.032C128.044 165.079 126.421 165.907 124.689 166.484C108.362 172.965 91.1487 189.083 71.9099 183.991C68.8388 183.21 65.801 181.695 64.1357 179.158C63.5455 178.236 63.1268 177.227 62.8972 176.175C62.6098 174.82 62.5057 173.438 62.5876 172.059C63.073 161.127 70.4873 151.678 75.4414 141.738C78.7218 135.171 80.9979 128.158 84.1946 121.591C85.3814 119.108 86.7516 116.705 88.2951 114.399C88.6874 113.512 89.4162 112.79 90.3424 112.372C91.2686 111.955 92.3272 111.87 93.3161 112.135C96.4537 112.485 99.5405 113.155 102.521 114.134C102.697 120.381 100.011 126.339 98.1112 132.328C95.9169 139.26 94.7319 146.435 94.5881 153.662C105.965 149.174 116.447 142.925 125.593 135.178C129.718 131.68 136.472 125.722 136.639 134.928C136.756 140.754 134.036 147.009 130.296 151.569C128.546 153.614 126.647 155.545 124.614 157.348L116.739 164.649C110.613 170.334 104.379 176.089 96.8727 180.087C96.6495 180.212 96.4236 180.329 96.1948 180.438" fill="url(#paint0_linear)"/>
<path d="M133.675 184.725C133.106 193.198 129.675 201.389 129.625 209.878C129.497 211.201 129.819 212.529 130.545 213.673C131.382 214.797 132.88 215.328 134.278 215.765C148.922 220.33 164.613 221.126 179.701 218.069C181.567 217.686 183.509 217.202 184.889 215.969C186.089 214.726 186.892 213.195 187.207 211.549C188.948 204.857 188.153 197.844 187.207 191.012C184.187 168.642 179.918 146.435 174.421 124.48C173.944 122.567 173.416 120.576 172.061 119.069C169.843 116.586 165.851 116.039 162.504 116.882C152.864 119.311 136.127 131.032 132.545 140.262C127.106 154.326 134.638 170.404 133.675 184.725Z" fill="#68E1FD"/>
<path d="M133.675 184.725C133.106 193.198 129.675 201.389 129.625 209.878C129.497 211.201 129.819 212.529 130.545 213.673C131.382 214.797 132.88 215.328 134.278 215.765C148.922 220.33 164.613 221.126 179.701 218.069C181.567 217.686 183.509 217.202 184.889 215.969C186.089 214.726 186.892 213.195 187.207 211.549C188.948 204.857 188.153 197.844 187.207 191.012C184.187 168.642 179.918 146.435 174.421 124.48C173.944 122.567 173.416 120.576 172.061 119.069C169.843 116.586 165.851 116.039 162.504 116.882C152.864 119.311 136.127 131.032 132.545 140.262C127.106 154.326 134.638 170.404 133.675 184.725Z" fill="url(#paint1_linear)"/>
<path d="M127.994 171.997C126.688 176.097 124.312 179.806 122.362 183.71C119.476 189.421 117.503 195.496 116.504 201.741C124.344 199.64 132.65 199.57 140.529 201.538L143.416 165.039C144.433 150.322 147.572 135.799 152.747 121.864C141.559 118.311 136.538 126.269 134.864 134.827C132.513 146.853 131.709 160.401 127.994 171.997Z" fill="#68E1FD"/>
<path d="M152.747 121.864C152.613 122.216 152.487 122.575 152.362 122.926C151.006 126.635 149.851 130.282 148.814 133.929C145.993 144.121 144.197 154.536 143.45 165.039L140.563 201.514C132.684 199.54 124.378 199.608 116.537 201.709C117.537 195.465 119.511 189.39 122.395 183.679C124.345 179.813 126.721 176.096 128.027 171.966C131.542 161.033 132.445 148.297 134.529 136.826L134.906 134.835C135.073 133.976 135.274 133.117 135.516 132.281C137.617 124.785 142.671 118.67 152.747 121.864Z" fill="url(#paint2_linear)"/>
<path d="M158.563 102.756C156.989 107.176 155.383 111.994 151.324 114.711C147.567 117.226 142.529 117.327 137.935 116.617C135.826 116.281 133.633 115.836 131.6 116.398C129.566 116.96 127.867 119.17 128.788 120.974C129.625 122.622 132.135 123.129 132.83 124.839C133.349 126.128 132.596 127.549 132.662 128.923C132.796 131.446 135.834 133.171 138.52 132.914C141.207 132.656 143.541 130.962 145.366 129.119C147.19 127.276 148.855 125.214 151.073 123.746C154.613 121.404 159.123 121.005 163.383 120.334C167.642 119.662 172.203 118.444 174.747 115.196C176.421 113.017 176.638 109.378 174.094 108.105C173.548 107.922 173.044 107.64 172.613 107.277C171.893 106.497 172.513 105.255 172.672 104.209C173.157 101.132 168.973 99.6248 166.521 98.6721C162.111 96.9464 159.968 98.7346 158.563 102.756Z" fill="#68E1FD"/>
<path d="M99.0317 120.904C97.6258 122.95 95.0568 123.957 92.9228 125.339C91.0244 126.588 89.4161 128.181 88.1947 130.025C80.1534 142.265 74.2656 155.629 70.7551 169.608C70.5027 171.024 69.9539 172.38 69.14 173.598C67.709 175.433 65.391 176.097 62.8972 176.206C62.6098 174.852 62.5057 173.469 62.5876 172.091C63.073 161.158 70.4873 151.71 75.4414 141.769C78.7218 135.202 80.9979 128.19 84.1946 121.622C89.3998 119.795 94.9061 118.944 100.036 115.992C100.339 117.689 99.9831 119.431 99.0317 120.904Z" fill="url(#paint3_linear)"/>
<path d="M90.1267 99.9998C90.2541 99.2604 90.5666 98.5595 91.0388 97.9539C91.7138 97.3392 92.5606 96.9143 93.4824 96.7279C97.0422 95.7163 100.715 95.0901 104.428 94.8616C106.186 94.6297 107.979 94.8652 109.6 95.541C112.453 96.9856 113.223 100.406 113.684 103.404C113.823 103.955 113.797 104.53 113.608 105.068C113.177 105.706 112.546 106.205 111.801 106.497C109.689 107.676 108.098 109.52 107.315 111.697C107.108 112.632 106.692 113.516 106.093 114.29C105.411 114.892 104.521 115.246 103.583 115.29C100.629 115.578 97.9343 114.204 95.0556 113.9C93.1476 113.697 89.5325 114.68 88.2187 113.009C86.5534 110.831 89.5325 102.405 90.1267 99.9998Z" fill="#F38A6B"/>
<path d="M102.554 116.687C94.7803 121.372 85.2739 123.77 78.8804 130.025C74.2779 134.522 71.5414 140.808 66.3279 144.463C65.7596 144.858 65.1642 145.218 64.5455 145.541C62.7463 146.486 60.2693 146.985 58.7713 145.666C57.65 144.682 57.4742 143.018 56.3613 142.042C53.5244 139.551 48.9218 143.776 45.1979 142.714C41.8506 141.753 41.5493 137.341 42.5786 134.194C43.6079 131.047 45.2314 127.487 43.4154 124.668C41.315 121.396 35.432 120.763 34.7375 117.007C34.7294 116.945 34.7294 116.882 34.7375 116.82C34.4697 114.774 36.1266 112.814 38.1434 111.924C40.1602 111.033 42.5953 110.971 44.8966 110.916C57.194 110.637 69.4581 109.599 81.6085 107.808C86.6295 107.074 105.818 101.054 107.316 109.862C107.793 112.728 105.132 115.125 102.554 116.687Z" fill="white"/>
<path d="M94.0859 112.361C93.1905 116.265 88.8473 118.397 85.0983 120.295C81.2427 122.237 77.5476 124.446 74.0437 126.901C72.5374 127.963 70.8888 129.532 71.4579 131.211C71.642 131.774 72.0604 132.25 72.2027 132.812C72.3106 133.715 72.067 134.624 71.5165 135.373L67.6754 142.167C67.2402 142.948 66.7884 143.729 66.3114 144.51C65.743 144.905 65.1476 145.265 64.5289 145.587C62.7297 146.532 60.2527 147.032 58.7548 145.712C57.6334 144.728 57.4577 143.065 56.3447 142.089C53.5078 139.598 48.9052 143.823 45.1813 142.761C41.834 141.8 41.5327 137.388 42.562 134.241C43.5913 131.094 45.2148 127.533 43.3989 124.714C41.2984 121.442 35.4155 120.81 34.7209 117.054C34.7128 116.992 34.7128 116.929 34.7209 116.867C36.6135 117.062 38.4822 117.423 40.3026 117.944C44.3194 118.897 55.1815 118.171 55.9011 123.543C56.194 125.714 54.3446 127.939 55.1982 129.985C56.3279 131.032 58.3447 130.376 59.3824 129.204C60.4201 128.033 60.9473 126.589 62.0351 125.495C63.1733 124.505 64.526 123.754 66.0017 123.293L94.0859 112.361Z" fill="url(#paint4_linear)"/>
<path d="M132.112 149.711C130.898 147.407 129.066 145.026 126.363 144.604L126.262 148.032C124.23 145.41 121.298 143.514 117.952 142.659C114.633 141.82 111.222 141.34 107.785 141.23C107.049 142.066 108.27 143.167 109.308 143.643L115.166 146.33C112.393 145.477 109.499 145.019 106.58 144.971C106.269 144.942 105.955 145.004 105.685 145.15C105.509 145.311 105.403 145.527 105.387 145.756C105.372 145.986 105.448 146.212 105.601 146.392C105.922 146.743 106.334 147.012 106.798 147.173L113.183 149.984C110.588 149.524 107.948 149.328 105.308 149.398C104.471 149.398 103.274 149.797 103.425 150.593C103.509 151.07 104.036 151.327 104.505 151.522L112.513 154.818C110.346 154.435 107.969 154.084 106.028 155.068C108.011 156.934 110.973 157.488 113.459 158.714C117.049 160.495 119.71 163.728 123.501 165.102C125.795 165.803 128.2 166.141 130.614 166.102C131.611 166.195 132.618 166.102 133.576 165.828C140.848 163.251 134.028 153.295 132.112 149.711Z" fill="#F38A6B"/>
<path d="M161.852 89.0675C162.22 89.0838 162.583 88.9862 162.886 88.79C163.188 88.5937 163.413 88.3097 163.525 87.9821C163.724 87.309 163.789 86.6077 163.718 85.9128C163.682 85.2358 163.778 84.5584 164.002 83.9137C164.115 83.5929 164.296 83.2967 164.535 83.0431C164.774 82.7894 165.065 82.5835 165.391 82.4379C165.607 82.3388 165.852 82.3113 166.086 82.3598C166.243 82.4219 166.382 82.5158 166.495 82.6347C166.608 82.7535 166.691 82.8944 166.739 83.0469C166.986 83.7136 167.086 84.4203 167.032 85.1241C166.997 86.2487 166.849 87.3678 166.588 88.4663C166.512 88.8661 166.359 89.2497 166.136 89.5985C165.948 89.8366 165.732 90.0541 165.492 90.2467C165.119 90.6222 164.64 90.8927 164.111 91.0276C163.807 91.0765 163.494 91.0376 163.215 90.9162C162.935 90.7948 162.702 90.5966 162.546 90.3482C162.399 90.0941 162.338 89.8044 162.371 89.5172C162.404 89.2301 162.529 88.9589 162.73 88.7396" fill="url(#paint5_linear)"/>
<path d="M198.121 181.375C198.444 182.404 198.388 183.504 197.962 184.499C197.323 185.366 196.374 185.992 195.284 186.264C185.351 189.692 174.213 187.615 164.221 184.343C156.425 181.793 148.911 178.545 141.786 174.644C138.011 172.575 134.162 170.131 132.338 166.422C130.513 162.712 131.677 157.441 135.752 155.958C138.639 154.911 141.852 155.958 144.723 157.074L161.326 163.322C162.246 158.261 159.284 153.389 157.325 148.594C153.443 139.091 153.769 128.682 160.346 120.342C166.07 113.072 175.259 108.246 183.067 116.063C189.845 122.856 189.644 136.678 191.284 145.346L198.121 181.375Z" fill="#68E1FD"/>
<path d="M198.121 181.375C198.444 182.404 198.388 183.504 197.962 184.499C197.323 185.366 196.374 185.992 195.284 186.264C185.351 189.692 174.213 187.615 164.221 184.343C156.425 181.793 148.911 178.545 141.786 174.644C138.011 172.575 134.162 170.131 132.338 166.422C130.513 162.712 131.677 157.441 135.752 155.958C138.639 154.911 141.852 155.958 144.723 157.074L161.326 163.322C162.246 158.261 159.284 153.389 157.325 148.594C153.443 139.091 153.769 128.682 160.346 120.342C166.07 113.072 175.259 108.246 183.067 116.063C189.845 122.856 189.644 136.678 191.284 145.346L198.121 181.375Z" fill="url(#paint6_linear)"/>
<path d="M174.789 115.071C172.278 118.327 167.684 119.538 163.424 120.217C159.165 120.896 154.654 121.302 151.115 123.622C148.897 125.074 147.265 127.159 145.407 129.002C143.55 130.845 141.265 132.531 138.562 132.789C135.859 133.047 132.83 131.329 132.704 128.799C132.637 127.424 133.39 126.003 132.872 124.715C132.434 123.878 131.733 123.187 130.863 122.731C130.029 122.271 129.33 121.624 128.83 120.849C127.909 119.053 129.6 116.875 131.641 116.281C133.683 115.688 135.868 116.164 137.976 116.492C142.537 117.203 147.575 117.101 151.366 114.587C155.424 111.869 157.031 107.059 158.604 102.631C160.035 98.6177 162.152 96.8217 166.604 98.5474C169.056 99.5001 173.24 101.007 172.755 104.084C172.697 104.459 172.588 104.865 172.496 105.24C172.369 105.553 172.321 105.889 172.356 106.222C172.391 106.555 172.507 106.876 172.697 107.161C173.128 107.521 173.632 107.8 174.178 107.98C176.705 109.253 176.496 112.9 174.789 115.071Z" fill="url(#paint7_linear)"/>
<path d="M152.362 122.903C151.007 126.612 149.852 130.259 148.814 133.905C147.712 134.931 146.423 135.764 145.007 136.365C143.3 136.911 141.505 137.176 139.701 137.146C137.959 137.28 136.205 137.172 134.496 136.826L134.873 134.835C135.04 133.976 135.241 133.117 135.484 132.281C136.441 132.71 137.505 132.889 138.563 132.797C141.266 132.539 143.584 130.844 145.408 129.009C147.233 127.174 148.898 125.105 151.116 123.629C151.516 123.365 151.932 123.122 152.362 122.903V122.903Z" fill="url(#paint8_linear)"/>
<path d="M174.789 115.071C172.278 118.327 167.684 119.537 163.424 120.217C159.165 120.896 154.654 121.302 151.115 123.621C148.897 125.074 147.265 127.159 145.407 129.001C143.55 130.844 141.265 132.531 138.562 132.789C135.859 133.046 132.83 131.329 132.704 128.798C132.637 127.424 133.391 126.003 132.872 124.714C132.434 123.878 131.733 123.186 130.863 122.731C131.144 122.372 131.499 122.069 131.907 121.839C132.315 121.61 132.768 121.459 133.24 121.396C133.897 121.332 134.555 121.513 135.07 121.899C135.586 122.285 135.917 122.845 135.993 123.457C135.993 123.926 135.809 124.426 136.052 124.824C136.264 125.108 136.584 125.306 136.947 125.378C139.324 126.058 141.909 125.128 143.968 123.816C146.027 122.505 147.792 120.802 149.96 119.654C154.646 117.179 160.696 117.562 165.165 114.758C166.378 113.977 167.525 112.564 166.839 111.369C163.349 110.721 160.194 114.024 156.638 113.79C159.918 112.447 164.069 111.361 166.68 109.027C168.487 107.426 169.977 105.466 172.462 105.247C172.335 105.56 172.287 105.896 172.322 106.229C172.357 106.563 172.474 106.884 172.663 107.168C173.095 107.529 173.598 107.807 174.144 107.988C176.705 109.253 176.496 112.9 174.789 115.071Z" fill="url(#paint9_linear)"/>
<path d="M63.5488 93.2764C71.708 93.1514 79.8838 93.0187 88.0095 93.6356C89.1308 93.7215 90.2606 93.823 91.3568 93.8386C92.4531 93.8542 93.6916 93.7683 94.8631 93.7058C99.2481 93.4794 103.591 93.6668 107.968 93.7683C102.294 91.6755 93.3652 93.2607 87.2814 93.2607C79.3901 93.2685 71.4653 93.1514 63.5488 93.2764Z" fill="white"/>
<path d="M94.5367 135.405C89.9006 138.778 84.955 142.183 82.3691 147.118C85.4092 146.05 88.1461 144.346 90.3693 142.136C92.7208 139.793 94.4446 136.959 96.9217 134.741C100.754 131.297 106.077 129.634 110.093 126.37C113.634 123.438 116.57 119.926 118.755 116.008C115.022 116.523 110.236 122.934 107.432 125.3C103.273 128.799 99.0054 132.242 94.5367 135.405Z" fill="white"/>
<path d="M168.604 76.4797C168.349 76.822 168.069 77.1481 167.767 77.4558C166.169 79.0722 164.035 80.2514 162.746 82.0786C162.696 82.1489 162.646 82.2114 162.604 82.2817C161.901 83.3359 161.516 84.554 160.83 85.6238C160.83 85.6238 160.83 85.5458 160.83 85.5067C160.295 82.5315 157.658 80.1655 154.972 78.3851C152.085 76.4641 148.83 74.7383 147.056 71.8725C146.754 71.2467 146.325 70.6818 145.792 70.2092C145.042 69.7757 144.16 69.5837 143.282 69.6626C141.767 69.6626 140.177 69.8344 138.629 69.8735C137.985 69.483 137.374 69.0223 136.754 68.5928C133.835 66.5726 130.466 65.1926 126.896 64.5556L146.093 65.8988C146.374 65.9395 146.662 65.9153 146.93 65.8285C147.441 65.6255 147.591 65.0476 147.918 64.6025C148.312 64.2048 148.844 63.9504 149.42 63.8846C149.997 63.8188 150.579 63.9459 151.064 64.2433C152.017 64.8675 152.791 65.7017 153.315 66.6718C154.487 68.4522 155.123 70.5138 157.65 70.0687C159.324 69.7797 160.763 69.0926 162.487 68.9442C165.834 68.6631 167.433 67.9447 169.592 65.3678C169.715 65.5491 169.826 65.7368 169.926 65.93C171.592 69.1629 170.797 73.5436 168.604 76.4797Z" fill="url(#paint10_linear)"/>
</g>
<defs>
<linearGradient id="paint0_linear" x1="160.807" y1="111.463" x2="74.3806" y2="163.819" gradientUnits="userSpaceOnUse">
<stop offset="0.01"/>
<stop offset="0.13" stop-opacity="0.69"/>
<stop offset="1" stop-opacity="0"/>
</linearGradient>
<linearGradient id="paint1_linear" x1="20572.7" y1="23001.9" x2="13596.2" y2="23735.9" gradientUnits="userSpaceOnUse">
<stop offset="0.01"/>
<stop offset="0.13" stop-opacity="0.69"/>
<stop offset="1" stop-opacity="0"/>
</linearGradient>
<linearGradient id="paint2_linear" x1="8574.78" y1="14416.7" x2="9257.01" y2="27751.6" gradientUnits="userSpaceOnUse">
<stop offset="0.01"/>
<stop offset="0.13" stop-opacity="0.69"/>
<stop offset="1" stop-opacity="0"/>
</linearGradient>
<linearGradient id="paint3_linear" x1="5676.38" y1="9741.77" x2="7845.8" y2="12668.2" gradientUnits="userSpaceOnUse">
<stop offset="0.01"/>
<stop offset="0.13" stop-opacity="0.69"/>
<stop offset="1" stop-opacity="0"/>
</linearGradient>
<linearGradient id="paint4_linear" x1="6443.22" y1="805.003" x2="7601.16" y2="7689.13" gradientUnits="userSpaceOnUse">
<stop offset="0.01"/>
<stop offset="0.13" stop-opacity="0.69"/>
<stop offset="1" stop-opacity="0"/>
</linearGradient>
<linearGradient id="paint5_linear" x1="1550.09" y1="1223.13" x2="1582.4" y2="1223.13" gradientUnits="userSpaceOnUse">
<stop offset="0.01"/>
<stop offset="0.13" stop-opacity="0.69"/>
<stop offset="1" stop-opacity="0"/>
</linearGradient>
<linearGradient id="paint6_linear" x1="24250.4" y1="16093.2" x2="16873" y2="16242.5" gradientUnits="userSpaceOnUse">
<stop offset="0.01"/>
<stop offset="0.13" stop-opacity="0.69"/>
<stop offset="1" stop-opacity="0"/>
</linearGradient>
<linearGradient id="paint7_linear" x1="11895.9" y1="5159.85" x2="12316.8" y2="6760.64" gradientUnits="userSpaceOnUse">
<stop offset="0.01"/>
<stop offset="0.13" stop-opacity="0.69"/>
<stop offset="1" stop-opacity="0"/>
</linearGradient>
<linearGradient id="paint8_linear" x1="4325.24" y1="2789.19" x2="4706.69" y2="2789.19" gradientUnits="userSpaceOnUse">
<stop offset="0.01"/>
<stop offset="0.13" stop-opacity="0.69"/>
<stop offset="1" stop-opacity="0"/>
</linearGradient>
<linearGradient id="paint9_linear" x1="10538.2" y1="4857.01" x2="12980.3" y2="4857.01" gradientUnits="userSpaceOnUse">
<stop offset="0.01"/>
<stop offset="0.13" stop-opacity="0.69"/>
<stop offset="1" stop-opacity="0"/>
</linearGradient>
<linearGradient id="paint10_linear" x1="10027.8" y1="2581.06" x2="12334.5" y2="2581.06" gradientUnits="userSpaceOnUse">
<stop offset="0.01"/>
<stop offset="0.13" stop-opacity="0.69"/>
<stop offset="1" stop-opacity="0"/>
</linearGradient>
<clipPath id="clip0">
<rect width="263" height="232" fill="white"/>
</clipPath>
</defs>
</svg>
